<?xml version="1.0" standalone="no"?>
<!DOCTYPE svg PUBLIC "-//W3C//DTD SVG 20010904//EN"
 "http://www.w3.org/TR/2001/REC-SVG-20010904/DTD/svg10.dtd">
<svg version="1.0" xmlns="http://www.w3.org/2000/svg"
 width="200.000000pt" height="200.000000pt" viewBox="0 0 200.000000 200.000000"
 preserveAspectRatio="xMidYMid meet">
<metadata>
Created by potrace 1.10, written by Peter Selinger 2001-2011
</metadata>
<g transform="translate(0.000000,200.000000) scale(0.100000,-0.100000)"
fill="#000000" stroke="none">
<path d="M965 1561 c-27 -6 -28 -8 -11 -17 10 -6 15 -13 10 -16 -15 -9 -227
-76 -269 -85 l-40 -9 40 -21 c51 -26 105 -38 105 -24 0 6 -4 11 -10 11 -5 0
-10 5 -10 10 0 6 8 10 18 10 9 0 60 14 112 30 123 39 137 39 99 1 -32 -32 -39
-57 -13 -47 9 3 32 6 52 6 32 0 34 1 17 13 -24 18 -11 37 25 37 24 0 27 -3 23
-22 -5 -20 0 -17 32 15 l38 37 -23 25 c-35 38 -132 61 -195 46z"/>
<path d="M1224 1485 c-18 -13 -16 -14 27 -15 33 0 52 -6 69 -22 l25 -23 -60
-6 c-70 -6 -141 -39 -224 -103 -66 -51 -190 -180 -239 -250 l-34 -47 27 7 27
7 -26 -52 c-39 -75 -56 -154 -56 -253 0 -48 -3 -88 -7 -88 -14 1 -82 119 -93
161 -17 63 15 185 75 279 14 22 25 42 25 45 0 3 -16 -1 -35 -9 -41 -17 -41
-17 -16 33 32 62 105 145 165 186 31 21 54 40 53 42 -7 6 -116 -36 -159 -61
-24 -14 -58 -39 -76 -56 -18 -16 -35 -30 -38 -30 -11 0 -2 26 19 48 19 21 19
24 4 19 -10 -4 -39 -7 -63 -7 l-44 0 0 -255 0 -256 26 -52 c77 -152 198 -273
351 -351 65 -32 71 -32 136 0 139 71 254 179 332 312 l45 77 0 262 0 263 -89
0 c-49 0 -96 3 -105 6 -39 15 -10 -14 49 -50 59 -35 65 -41 65 -72 0 -38 -29
-64 -72 -64 -16 0 -28 -4 -28 -8 0 -12 56 -42 79 -42 20 0 21 -5 21 -80 0 -44
-3 -80 -7 -80 -5 0 -31 13 -59 30 -48 27 -75 53 -117 110 l-17 25 6 -35 c15
-85 74 -183 135 -226 21 -14 39 -31 39 -35 0 -15 -70 -119 -81 -119 -21 0
-111 103 -134 153 -40 86 -51 187 -32 282 9 43 15 81 12 83 -7 8 -75 -138 -90
-195 -20 -75 -19 -206 1 -274 18 -60 68 -164 84 -174 5 -3 10 -10 10 -15 0
-12 -108 -72 -118 -66 -16 10 -71 131 -87 191 -21 82 -19 206 4 298 69 268
316 514 431 428 28 -20 29 -20 35 -1 12 39 -17 106 -57 126 -35 18 -89 18
-114 -1z m-576 -271 c12 -8 27 -12 34 -8 8 5 9 2 4 -12 -26 -64 -28 -76 -16
-98 9 -18 9 -30 -3 -59 -9 -19 -13 -38 -9 -41 3 -3 0 -6 -6 -6 -7 0 -12 -6
-12 -13 0 -7 -7 -22 -15 -33 -13 -17 -14 -3 -15 134 0 83 3 152 8 152 4 0 18
-7 30 -16z m346 -40 c3 -8 2 -13 -3 -9 -11 6 -64 -101 -81 -165 -6 -25 -17
-54 -23 -65 -6 -11 -12 -65 -15 -121 -4 -97 4 -167 28 -229 6 -17 11 -31 11
-32 -2 -9 64 -123 71 -123 4 0 8 -7 8 -15 0 -12 -4 -13 -27 -2 -16 6 -30 14
-33 17 -3 3 -32 23 -65 44 -56 37 -145 121 -145 139 0 4 6 7 13 6 45 -6 63 31
66 134 1 51 11 97 33 157 17 47 31 99 32 115 1 35 35 87 85 132 43 38 38 36
45 17z m431 -71 c-2 -10 -4 -24 -4 -32 -1 -11 -6 -10 -21 4 -15 14 -17 21 -9
32 16 19 38 16 34 -4z m-5 -268 c0 -36 -2 -65 -4 -65 -14 0 -36 14 -36 22 0
15 -68 77 -76 70 -4 -4 -5 -1 -3 6 5 15 8 15 44 6 16 -4 30 0 40 10 28 28 35
18 35 -49z m-325 -13 c23 -71 127 -198 166 -203 5 -1 15 -2 22 -3 6 -1 17 5
23 13 9 11 12 12 19 1 6 -9 4 -11 -5 -5 -8 5 -11 3 -8 -5 2 -6 -19 -35 -47
-63 -51 -52 -125 -113 -125 -103 0 4 0 8 0 11 0 3 3 5 7 4 4 0 10 8 14 18 4
11 -8 47 -34 98 -50 99 -67 162 -67 245 0 72 9 71 35 -8z"/>
</g>
</svg>
